<svg xmlns="http://www.w3.org/2000/svg" viewBox="0 0 1280 1440" width="1280" height="1440" shape-rendering="crispEdges"><g fill="#CFE3FA"><rect x="0" y="0" width="32" height="32"/><rect x="64" y="0" width="32" height="32"/><rect x="128" y="0" width="32" height="32"/><rect x="192" y="0" width="32" height="32"/><rect x="256" y="0" width="32" height="32"/><rect x="320" y="0" width="32" height="32"/><rect x="352" y="0" width="32" height="32"/><rect x="384" y="0" width="32" height="32"/><rect x="448" y="0" width="32" height="32"/><rect x="512" y="0" width="32" height="32"/><rect x="576" y="0" width="32" height="32"/><rect x="640" y="0" width="32" height="32"/><rect x="704" y="0" width="32" height="32"/><rect x="768" y="0" width="32" height="32"/><rect x="832" y="0" width="32" height="32"/><rect x="896" y="0" width="32" height="32"/><rect x="960" y="0" width="32" height="32"/><rect x="1024" y="0" width="32" height="32"/><rect x="1088" y="0" width="32" height="32"/><rect x="1120" y="0" width="32" height="32"/><rect x="1152" y="0" width="32" height="32"/><rect x="1216" y="0" width="32" height="32"/><rect x="32" y="32" width="32" height="32"/><rect x="96" y="32" width="32" height="32"/><rect x="160" y="32" width="32" height="32"/><rect x="224" y="32" width="32" height="32"/><rect x="256" y="32" width="32" height="32"/><rect x="288" y="32" width="32" height="32"/><rect x="320" y="32" width="32" height="32"/><rect x="352" y="32" width="32" height="32"/><rect x="416" y="32" width="32" height="32"/><rect x="480" y="32" width="32" height="32"/><rect x="512" y="32" width="32" height="32"/><rect x="544" y="32" width="32" height="32"/><rect x="608" y="32" width="32" height="32"/><rect x="672" y="32" width="32" height="32"/><rect x="736" y="32" width="32" height="32"/><rect x="800" y="32" width="32" height="32"/><rect x="864" y="32" width="32" height="32"/><rect x="928" y="32" width="32" height="32"/><rect x="992" y="32" width="32" height="32"/><rect x="1056" y="32" width="32" height="32"/><rect x="1120" y="32" width="32" height="32"/><rect x="1184" y="32" width="32" height="32"/><rect x="1248" y="32" width="32" height="32"/><rect x="0" y="64" width="32" height="32"/><rect x="64" y="64" width="32" height="32"/><rect x="128" y="64" width="32" height="32"/><rect x="192" y="64" width="32" height="32"/><rect x="256" y="64" width="32" height="32"/><rect x="320" y="64" width="32" height="32"/><rect x="384" y="64" width="32" height="32"/><rect x="448" y="64" width="32" height="32"/><rect x="480" y="64" width="32" height="32"/><rect x="512" y="64" width="32" height="32"/><rect x="576" y="64" width="32" height="32"/><rect x="640" y="64" width="32" height="32"/><rect x="704" y="64" width="32" height="32"/><rect x="768" y="64" width="32" height="32"/><rect x="832" y="64" width="32" height="32"/><rect x="864" y="64" width="32" height="32"/><rect x="896" y="64" width="32" height="32"/><rect x="960" y="64" width="32" height="32"/><rect x="1024" y="64" width="32" height="32"/><rect x="1088" y="64" width="32" height="32"/><rect x="1120" y="64" width="32" height="32"/><rect x="1152" y="64" width="32" height="32"/><rect x="1216" y="64" width="32" height="32"/><rect x="32" y="96" width="32" height="32"/><rect x="96" y="96" width="32" height="32"/><rect x="160" y="96" width="32" height="32"/><rect x="224" y="96" width="32" height="32"/><rect x="288" y="96" width="32" height="32"/><rect x="352" y="96" width="32" height="32"/><rect x="416" y="96" width="32" height="32"/><rect x="480" y="96" width="32" height="32"/><rect x="512" y="96" width="32" height="32"/><rect x="544" y="96" width="32" height="32"/><rect x="608" y="96" width="32" height="32"/><rect x="672" y="96" width="32" height="32"/><rect x="736" y="96" width="32" height="32"/><rect x="800" y="96" width="32" height="32"/><rect x="864" y="96" width="32" height="32"/><rect x="928" y="96" width="32" height="32"/><rect x="960" y="96" width="32" height="32"/><rect x="992" y="96" width="32" height="32"/><rect x="1056" y="96" width="32" height="32"/><rect x="1088" y="96" width="32" height="32"/><rect x="1120" y="96" width="32" height="32"/><rect x="1184" y="96" width="32" height="32"/><rect x="1216" y="96" width="32" height="32"/><rect x="1248" y="96" width="32" height="32"/><rect x="0" y="128" width="32" height="32"/><rect x="64" y="128" width="32" height="32"/><rect x="128" y="128" width="32" height="32"/><rect x="192" y="128" width="32" height="32"/><rect x="256" y="128" width="32" height="32"/><rect x="320" y="128" width="32" height="32"/><rect x="384" y="128" width="32" height="32"/><rect x="448" y="128" width="32" height="32"/><rect x="512" y="128" width="32" height="32"/><rect x="576" y="128" width="32" height="32"/><rect x="608" y="128" width="32" height="32"/><rect x="640" y="128" width="32" height="32"/><rect x="704" y="128" width="32" height="32"/><rect x="768" y="128" width="32" height="32"/><rect x="832" y="128" width="32" height="32"/><rect x="896" y="128" width="32" height="32"/><rect x="960" y="128" width="32" height="32"/><rect x="992" y="128" width="32" height="32"/><rect x="1024" y="128" width="32" height="32"/><rect x="1056" y="128" width="32" height="32"/><rect x="1088" y="128" width="32" height="32"/><rect x="1120" y="128" width="32" height="32"/><rect x="1152" y="128" width="32" height="32"/><rect x="1216" y="128" width="32" height="32"/><rect x="32" y="160" width="32" height="32"/><rect x="96" y="160" width="32" height="32"/><rect x="128" y="160" width="32" height="32"/><rect x="160" y="160" width="32" height="32"/><rect x="192" y="160" width="32" height="32"/><rect x="224" y="160" width="32" height="32"/><rect x="288" y="160" width="32" height="32"/><rect x="352" y="160" width="32" height="32"/><rect x="416" y="160" width="32" height="32"/><rect x="480" y="160" width="32" height="32"/><rect x="544" y="160" width="32" height="32"/><rect x="672" y="160" width="32" height="32"/><rect x="736" y="160" width="32" height="32"/><rect x="800" y="160" width="32" height="32"/><rect x="864" y="160" width="32" height="32"/><rect x="896" y="160" width="32" height="32"/><rect x="928" y="160" width="32" height="32"/><rect x="992" y="160" width="32" height="32"/><rect x="1056" y="160" width="32" height="32"/><rect x="1088" y="160" width="32" height="32"/><rect x="1120" y="160" width="32" height="32"/><rect x="1152" y="160" width="32" height="32"/><rect x="1184" y="160" width="32" height="32"/><rect x="1248" y="160" width="32" height="32"/><rect x="0" y="192" width="32" height="32"/><rect x="64" y="192" width="32" height="32"/><rect x="128" y="192" width="32" height="32"/><rect x="192" y="192" width="32" height="32"/><rect x="256" y="192" width="32" height="32"/><rect x="288" y="192" width="32" height="32"/><rect x="320" y="192" width="32" height="32"/><rect x="384" y="192" width="32" height="32"/><rect x="448" y="192" width="32" height="32"/><rect x="512" y="192" width="32" height="32"/><rect x="576" y="192" width="32" height="32"/><rect x="640" y="192" width="16" height="16"/><rect x="768" y="192" width="32" height="32"/><rect x="832" y="192" width="32" height="32"/><rect x="896" y="192" width="32" height="32"/><rect x="928" y="192" width="32" height="32"/><rect x="960" y="192" width="32" height="32"/><rect x="1024" y="192" width="32" height="32"/><rect x="1088" y="192" width="32" height="32"/><rect x="1120" y="192" width="32" height="32"/><rect x="1152" y="192" width="32" height="32"/><rect x="1216" y="192" width="32" height="32"/><rect x="0" y="224" width="32" height="32"/><rect x="32" y="224" width="32" height="32"/><rect x="64" y="224" width="32" height="32"/><rect x="96" y="224" width="32" height="32"/><rect x="160" y="224" width="32" height="32"/><rect x="224" y="224" width="32" height="32"/><rect x="288" y="224" width="32" height="32"/><rect x="416" y="224" width="32" height="32"/><rect x="608" y="224" width="32" height="32"/><rect x="672" y="224" width="32" height="32"/><rect x="736" y="224" width="32" height="32"/><rect x="800" y="224" width="32" height="32"/><rect x="864" y="224" width="32" height="32"/><rect x="928" y="224" width="32" height="32"/><rect x="992" y="224" width="32" height="32"/><rect x="1056" y="224" width="32" height="32"/><rect x="1088" y="224" width="32" height="32"/><rect x="1120" y="224" width="32" height="32"/><rect x="1184" y="224" width="32" height="32"/><rect x="1248" y="224" width="32" height="32"/><rect x="0" y="256" width="32" height="32"/><rect x="64" y="256" width="32" height="32"/><rect x="128" y="256" width="32" height="32"/><rect x="192" y="256" width="32" height="32"/><rect x="256" y="256" width="32" height="32"/><rect x="320" y="256" width="32" height="32"/><rect x="384" y="256" width="32" height="32"/><rect x="448" y="256" width="32" height="32"/><rect x="576" y="256" width="32" height="32"/><rect x="640" y="256" width="16" height="16"/><rect x="672" y="256" width="32" height="32"/><rect x="704" y="256" width="32" height="32"/><rect x="736" y="256" width="32" height="32"/><rect x="768" y="256" width="16" height="16"/><rect x="864" y="256" width="32" height="32"/><rect x="896" y="256" width="32" height="32"/><rect x="960" y="256" width="32" height="32"/><rect x="1024" y="256" width="32" height="32"/><rect x="1088" y="256" width="32" height="32"/><rect x="1152" y="256" width="32" height="32"/><rect x="1216" y="256" width="32" height="32"/><rect x="32" y="288" width="32" height="32"/><rect x="96" y="288" width="32" height="32"/><rect x="128" y="288" width="32" height="32"/><rect x="160" y="288" width="32" height="32"/><rect x="224" y="288" width="32" height="32"/><rect x="288" y="288" width="32" height="32"/><rect x="320" y="288" width="32" height="32"/><rect x="352" y="288" width="32" height="32"/><rect x="416" y="288" width="32" height="32"/><rect x="496" y="288" width="16" height="16"/><rect x="608" y="288" width="32" height="32"/><rect x="800" y="288" width="32" height="32"/><rect x="864" y="288" width="32" height="32"/><rect x="928" y="288" width="32" height="32"/><rect x="992" y="288" width="32" height="32"/><rect x="1056" y="288" width="32" height="32"/><rect x="1088" y="288" width="32" height="32"/><rect x="1120" y="288" width="32" height="32"/><rect x="1184" y="288" width="32" height="32"/><rect x="1248" y="288" width="32" height="32"/><rect x="0" y="320" width="32" height="32"/><rect x="64" y="320" width="32" height="32"/><rect x="128" y="320" width="32" height="32"/><rect x="160" y="320" width="32" height="32"/><rect x="192" y="320" width="32" height="32"/><rect x="224" y="320" width="32" height="32"/><rect x="256" y="320" width="32" height="32"/><rect x="320" y="320" width="32" height="32"/><rect x="384" y="320" width="32" height="32"/><rect x="448" y="320" width="32" height="32"/><rect x="512" y="320" width="32" height="32"/><rect x="576" y="320" width="32" height="32"/><rect x="704" y="320" width="32" height="32"/><rect x="784" y="336" width="16" height="16"/><rect x="896" y="320" width="32" height="32"/><rect x="960" y="320" width="32" height="32"/><rect x="992" y="320" width="32" height="32"/><rect x="1024" y="320" width="32" height="32"/><rect x="1088" y="320" width="32" height="32"/><rect x="1152" y="320" width="32" height="32"/><rect x="1216" y="320" width="32" height="32"/><rect x="32" y="352" width="32" height="32"/><rect x="96" y="352" width="32" height="32"/><rect x="128" y="352" width="32" height="32"/><rect x="160" y="352" width="32" height="32"/><rect x="224" y="352" width="32" height="32"/><rect x="256" y="352" width="32" height="32"/><rect x="288" y="352" width="32" height="32"/><rect x="416" y="352" width="32" height="32"/><rect x="480" y="352" width="32" height="32"/><rect x="672" y="352" width="32" height="32"/><rect x="832" y="352" width="32" height="32"/><rect x="864" y="368" width="16" height="16"/><rect x="928" y="352" width="32" height="32"/><rect x="992" y="352" width="32" height="32"/><rect x="1056" y="352" width="32" height="32"/><rect x="1088" y="352" width="32" height="32"/><rect x="1120" y="352" width="32" height="32"/><rect x="1184" y="352" width="32" height="32"/><rect x="1248" y="352" width="32" height="32"/><rect x="0" y="384" width="32" height="32"/><rect x="64" y="384" width="32" height="32"/><rect x="128" y="384" width="32" height="32"/><rect x="192" y="384" width="32" height="32"/><rect x="720" y="384" width="16" height="16"/><rect x="768" y="384" width="32" height="32"/><rect x="832" y="384" width="32" height="32"/><rect x="960" y="384" width="32" height="32"/><rect x="1024" y="384" width="32" height="32"/><rect x="1088" y="384" width="32" height="32"/><rect x="1152" y="384" width="32" height="32"/><rect x="1216" y="384" width="32" height="32"/><rect x="32" y="416" width="32" height="32"/><rect x="96" y="416" width="32" height="32"/><rect x="160" y="416" width="32" height="32"/><rect x="224" y="416" width="32" height="32"/><rect x="352" y="432" width="16" height="16"/><rect x="800" y="416" width="16" height="16"/><rect x="864" y="416" width="16" height="16"/><rect x="944" y="432" width="16" height="16"/><rect x="992" y="416" width="32" height="32"/><rect x="1056" y="416" width="32" height="32"/><rect x="1120" y="416" width="32" height="32"/><rect x="1184" y="416" width="32" height="32"/><rect x="1248" y="416" width="32" height="32"/><rect x="0" y="448" width="32" height="32"/><rect x="64" y="448" width="32" height="32"/><rect x="128" y="448" width="32" height="32"/><rect x="192" y="448" width="32" height="32"/><rect x="256" y="448" width="32" height="32"/><rect x="352" y="448" width="32" height="32"/><rect x="384" y="448" width="16" height="16"/><rect x="832" y="464" width="16" height="16"/><rect x="912" y="464" width="16" height="16"/><rect x="960" y="448" width="32" height="32"/><rect x="1024" y="448" width="32" height="32"/><rect x="1056" y="448" width="32" height="32"/><rect x="1088" y="448" width="32" height="32"/><rect x="1152" y="448" width="32" height="32"/><rect x="1216" y="448" width="32" height="32"/><rect x="1248" y="448" width="32" height="32"/><rect x="32" y="480" width="32" height="32"/><rect x="96" y="480" width="32" height="32"/><rect x="160" y="480" width="32" height="32"/><rect x="224" y="480" width="32" height="32"/><rect x="288" y="480" width="32" height="32"/><rect x="352" y="496" width="16" height="16"/><rect x="416" y="480" width="32" height="32"/><rect x="992" y="480" width="32" height="32"/><rect x="1024" y="480" width="32" height="32"/><rect x="1056" y="480" width="32" height="32"/><rect x="1120" y="480" width="32" height="32"/><rect x="1184" y="480" width="32" height="32"/><rect x="1248" y="480" width="32" height="32"/><rect x="0" y="512" width="32" height="32"/><rect x="64" y="512" width="32" height="32"/><rect x="128" y="512" width="32" height="32"/><rect x="192" y="512" width="32" height="32"/><rect x="272" y="528" width="16" height="16"/><rect x="320" y="512" width="32" height="32"/><rect x="896" y="512" width="32" height="32"/><rect x="960" y="528" width="16" height="16"/><rect x="1056" y="512" width="32" height="32"/><rect x="1088" y="512" width="32" height="32"/><rect x="1152" y="512" width="32" height="32"/><rect x="1184" y="512" width="32" height="32"/><rect x="1216" y="512" width="32" height="32"/><rect x="32" y="544" width="32" height="32"/><rect x="96" y="544" width="32" height="32"/><rect x="160" y="544" width="32" height="32"/><rect x="192" y="544" width="32" height="32"/><rect x="224" y="544" width="32" height="32"/><rect x="288" y="560" width="16" height="16"/><rect x="352" y="544" width="32" height="32"/><rect x="864" y="544" width="16" height="16"/><rect x="1024" y="544" width="32" height="32"/><rect x="1056" y="544" width="32" height="32"/><rect x="1088" y="544" width="32" height="32"/><rect x="1120" y="544" width="32" height="32"/><rect x="1184" y="544" width="32" height="32"/><rect x="1248" y="544" width="32" height="32"/><rect x="0" y="576" width="32" height="32"/><rect x="64" y="576" width="32" height="32"/><rect x="128" y="576" width="32" height="32"/><rect x="336" y="592" width="16" height="16"/><rect x="896" y="592" width="16" height="16"/><rect x="928" y="576" width="32" height="32"/><rect x="960" y="576" width="16" height="16"/><rect x="1024" y="576" width="32" height="32"/><rect x="1056" y="576" width="32" height="32"/><rect x="1152" y="576" width="32" height="32"/><rect x="1216" y="576" width="32" height="32"/><rect x="32" y="608" width="32" height="32"/><rect x="96" y="608" width="32" height="32"/><rect x="160" y="608" width="32" height="32"/><rect x="224" y="608" width="32" height="32"/><rect x="288" y="608" width="16" height="16"/><rect x="992" y="608" width="16" height="16"/><rect x="1056" y="608" width="32" height="32"/><rect x="1120" y="608" width="32" height="32"/><rect x="1184" y="608" width="32" height="32"/><rect x="1248" y="608" width="32" height="32"/><rect x="0" y="640" width="32" height="32"/><rect x="64" y="640" width="32" height="32"/><rect x="128" y="640" width="32" height="32"/><rect x="192" y="640" width="32" height="32"/><rect x="256" y="640" width="32" height="32"/><rect x="896" y="640" width="16" height="16"/><rect x="1056" y="640" width="32" height="32"/><rect x="1120" y="640" width="32" height="32"/><rect x="1152" y="640" width="32" height="32"/><rect x="1216" y="640" width="32" height="32"/><rect x="0" y="672" width="32" height="32"/><rect x="32" y="672" width="32" height="32"/><rect x="96" y="672" width="32" height="32"/><rect x="160" y="672" width="32" height="32"/><rect x="256" y="672" width="32" height="32"/><rect x="352" y="672" width="32" height="32"/><rect x="928" y="688" width="16" height="16"/><rect x="992" y="672" width="32" height="32"/><rect x="1056" y="672" width="32" height="32"/><rect x="1120" y="672" width="32" height="32"/><rect x="1184" y="672" width="32" height="32"/><rect x="1248" y="672" width="32" height="32"/><rect x="0" y="704" width="32" height="32"/><rect x="64" y="704" width="32" height="32"/><rect x="128" y="704" width="32" height="32"/><rect x="224" y="704" width="32" height="32"/><rect x="256" y="704" width="32" height="32"/><rect x="1024" y="704" width="32" height="32"/><rect x="1152" y="704" width="32" height="32"/><rect x="1216" y="704" width="32" height="32"/><rect x="32" y="736" width="32" height="32"/><rect x="64" y="736" width="32" height="32"/><rect x="96" y="736" width="32" height="32"/><rect x="160" y="736" width="32" height="32"/><rect x="224" y="736" width="32" height="32"/><rect x="944" y="752" width="16" height="16"/><rect x="1056" y="736" width="32" height="32"/><rect x="1120" y="736" width="32" height="32"/><rect x="1184" y="736" width="32" height="32"/><rect x="1248" y="736" width="32" height="32"/><rect x="0" y="768" width="32" height="32"/><rect x="32" y="768" width="32" height="32"/><rect x="64" y="768" width="32" height="32"/><rect x="128" y="768" width="32" height="32"/><rect x="192" y="768" width="32" height="32"/><rect x="256" y="768" width="32" height="32"/><rect x="912" y="784" width="16" height="16"/><rect x="960" y="768" width="32" height="32"/><rect x="1024" y="768" width="32" height="32"/><rect x="1056" y="768" width="32" height="32"/><rect x="1088" y="768" width="32" height="32"/><rect x="1152" y="768" width="32" height="32"/><rect x="1216" y="768" width="32" height="32"/><rect x="32" y="800" width="32" height="32"/><rect x="96" y="800" width="32" height="32"/><rect x="160" y="800" width="32" height="32"/><rect x="224" y="800" width="32" height="32"/><rect x="832" y="800" width="32" height="32"/><rect x="1008" y="800" width="16" height="16"/><rect x="1056" y="800" width="32" height="32"/><rect x="1120" y="800" width="32" height="32"/><rect x="1184" y="800" width="32" height="32"/><rect x="1248" y="800" width="32" height="32"/><rect x="0" y="832" width="32" height="32"/><rect x="32" y="832" width="32" height="32"/><rect x="64" y="832" width="32" height="32"/><rect x="128" y="832" width="32" height="32"/><rect x="192" y="832" width="32" height="32"/><rect x="272" y="832" width="16" height="16"/><rect x="384" y="832" width="16" height="16"/><rect x="912" y="848" width="16" height="16"/><rect x="960" y="832" width="32" height="32"/><rect x="1024" y="832" width="32" height="32"/><rect x="1088" y="832" width="32" height="32"/><rect x="1152" y="832" width="32" height="32"/><rect x="1184" y="832" width="32" height="32"/><rect x="1216" y="832" width="32" height="32"/><rect x="1248" y="832" width="32" height="32"/><rect x="32" y="864" width="32" height="32"/><rect x="64" y="864" width="32" height="32"/><rect x="96" y="864" width="32" height="32"/><rect x="160" y="864" width="32" height="32"/><rect x="192" y="864" width="32" height="32"/><rect x="928" y="864" width="32" height="32"/><rect x="992" y="864" width="32" height="32"/><rect x="1056" y="864" width="32" height="32"/><rect x="1120" y="864" width="32" height="32"/><rect x="1184" y="864" width="32" height="32"/><rect x="1248" y="864" width="32" height="32"/><rect x="0" y="896" width="32" height="32"/><rect x="64" y="896" width="32" height="32"/><rect x="96" y="896" width="32" height="32"/><rect x="128" y="896" width="32" height="32"/><rect x="192" y="896" width="32" height="32"/><rect x="224" y="896" width="32" height="32"/><rect x="256" y="896" width="32" height="32"/><rect x="288" y="896" width="32" height="32"/><rect x="320" y="896" width="32" height="32"/><rect x="400" y="896" width="16" height="16"/><rect x="960" y="896" width="32" height="32"/><rect x="1024" y="896" width="32" height="32"/><rect x="1088" y="896" width="32" height="32"/><rect x="1120" y="896" width="32" height="32"/><rect x="1152" y="896" width="32" height="32"/><rect x="1184" y="896" width="32" height="32"/><rect x="1216" y="896" width="32" height="32"/><rect x="0" y="928" width="32" height="32"/><rect x="32" y="928" width="32" height="32"/><rect x="96" y="928" width="32" height="32"/><rect x="128" y="928" width="32" height="32"/><rect x="160" y="928" width="32" height="32"/><rect x="224" y="928" width="32" height="32"/><rect x="288" y="928" width="32" height="32"/><rect x="352" y="928" width="32" height="32"/><rect x="800" y="928" width="32" height="32"/><rect x="864" y="928" width="32" height="32"/><rect x="928" y="928" width="32" height="32"/><rect x="960" y="928" width="32" height="32"/><rect x="992" y="928" width="32" height="32"/><rect x="1056" y="928" width="32" height="32"/><rect x="1120" y="928" width="32" height="32"/><rect x="1184" y="928" width="32" height="32"/><rect x="1216" y="928" width="32" height="32"/><rect x="1248" y="928" width="32" height="32"/><rect x="0" y="960" width="32" height="32"/><rect x="64" y="960" width="32" height="32"/><rect x="96" y="960" width="32" height="32"/><rect x="128" y="960" width="32" height="32"/><rect x="160" y="960" width="32" height="32"/><rect x="192" y="960" width="32" height="32"/><rect x="256" y="960" width="32" height="32"/><rect x="464" y="976" width="16" height="16"/><rect x="832" y="960" width="32" height="32"/><rect x="864" y="960" width="32" height="32"/><rect x="896" y="960" width="32" height="32"/><rect x="928" y="960" width="32" height="32"/><rect x="1024" y="960" width="32" height="32"/><rect x="1088" y="960" width="32" height="32"/><rect x="1152" y="960" width="32" height="32"/><rect x="1216" y="960" width="32" height="32"/><rect x="32" y="992" width="32" height="32"/><rect x="96" y="992" width="32" height="32"/><rect x="160" y="992" width="32" height="32"/><rect x="224" y="992" width="32" height="32"/><rect x="256" y="992" width="32" height="32"/><rect x="288" y="992" width="32" height="32"/><rect x="416" y="992" width="32" height="32"/><rect x="480" y="992" width="32" height="32"/><rect x="816" y="992" width="16" height="16"/><rect x="864" y="992" width="32" height="32"/><rect x="928" y="992" width="32" height="32"/><rect x="1056" y="992" width="32" height="32"/><rect x="1120" y="992" width="32" height="32"/><rect x="1184" y="992" width="32" height="32"/><rect x="1248" y="992" width="32" height="32"/><rect x="0" y="1024" width="32" height="32"/><rect x="64" y="1024" width="32" height="32"/><rect x="128" y="1024" width="32" height="32"/><rect x="192" y="1024" width="32" height="32"/><rect x="256" y="1024" width="32" height="32"/><rect x="320" y="1024" width="32" height="32"/><rect x="400" y="1040" width="16" height="16"/><rect x="448" y="1024" width="32" height="32"/><rect x="576" y="1040" width="16" height="16"/><rect x="768" y="1024" width="32" height="32"/><rect x="832" y="1024" width="16" height="16"/><rect x="864" y="1024" width="32" height="32"/><rect x="896" y="1024" width="32" height="32"/><rect x="960" y="1024" width="32" height="32"/><rect x="1024" y="1024" width="32" height="32"/><rect x="1088" y="1024" width="32" height="32"/><rect x="1152" y="1024" width="32" height="32"/><rect x="1216" y="1024" width="32" height="32"/><rect x="0" y="1056" width="32" height="32"/><rect x="32" y="1056" width="32" height="32"/><rect x="96" y="1056" width="32" height="32"/><rect x="128" y="1056" width="32" height="32"/><rect x="160" y="1056" width="32" height="32"/><rect x="224" y="1056" width="32" height="32"/><rect x="288" y="1056" width="32" height="32"/><rect x="352" y="1056" width="32" height="32"/><rect x="624" y="1072" width="16" height="16"/><rect x="800" y="1056" width="32" height="32"/><rect x="928" y="1056" width="32" height="32"/><rect x="992" y="1056" width="32" height="32"/><rect x="1056" y="1056" width="32" height="32"/><rect x="1120" y="1056" width="32" height="32"/><rect x="1184" y="1056" width="32" height="32"/><rect x="1216" y="1056" width="32" height="32"/><rect x="1248" y="1056" width="32" height="32"/><rect x="0" y="1088" width="32" height="32"/><rect x="64" y="1088" width="32" height="32"/><rect x="96" y="1088" width="32" height="32"/><rect x="128" y="1088" width="32" height="32"/><rect x="192" y="1088" width="32" height="32"/><rect x="256" y="1088" width="32" height="32"/><rect x="288" y="1088" width="32" height="32"/><rect x="384" y="1088" width="32" height="32"/><rect x="448" y="1088" width="16" height="16"/><rect x="576" y="1088" width="32" height="32"/><rect x="704" y="1104" width="16" height="16"/><rect x="768" y="1088" width="32" height="32"/><rect x="800" y="1088" width="32" height="32"/><rect x="832" y="1088" width="32" height="32"/><rect x="864" y="1088" width="32" height="32"/><rect x="896" y="1088" width="32" height="32"/><rect x="960" y="1088" width="32" height="32"/><rect x="1024" y="1088" width="32" height="32"/><rect x="1088" y="1088" width="32" height="32"/><rect x="1152" y="1088" width="32" height="32"/><rect x="1216" y="1088" width="32" height="32"/><rect x="32" y="1120" width="32" height="32"/><rect x="96" y="1120" width="32" height="32"/><rect x="160" y="1120" width="32" height="32"/><rect x="224" y="1120" width="32" height="32"/><rect x="416" y="1120" width="32" height="32"/><rect x="480" y="1120" width="32" height="32"/><rect x="544" y="1120" width="32" height="32"/><rect x="672" y="1120" width="32" height="32"/><rect x="704" y="1120" width="32" height="32"/><rect x="928" y="1120" width="32" height="32"/><rect x="992" y="1120" width="32" height="32"/><rect x="1024" y="1120" width="32" height="32"/><rect x="1056" y="1120" width="32" height="32"/><rect x="1120" y="1120" width="32" height="32"/><rect x="1184" y="1120" width="32" height="32"/><rect x="1248" y="1120" width="32" height="32"/><rect x="0" y="1152" width="32" height="32"/><rect x="64" y="1152" width="32" height="32"/><rect x="128" y="1152" width="32" height="32"/><rect x="192" y="1152" width="32" height="32"/><rect x="256" y="1152" width="32" height="32"/><rect x="320" y="1152" width="32" height="32"/><rect x="384" y="1152" width="32" height="32"/><rect x="448" y="1152" width="32" height="32"/><rect x="576" y="1152" width="32" height="32"/><rect x="704" y="1152" width="32" height="32"/><rect x="768" y="1152" width="32" height="32"/><rect x="832" y="1152" width="32" height="32"/><rect x="960" y="1152" width="32" height="32"/><rect x="1024" y="1152" width="32" height="32"/><rect x="1088" y="1152" width="32" height="32"/><rect x="1152" y="1152" width="32" height="32"/><rect x="1216" y="1152" width="32" height="32"/><rect x="32" y="1184" width="32" height="32"/><rect x="96" y="1184" width="32" height="32"/><rect x="160" y="1184" width="32" height="32"/><rect x="224" y="1184" width="32" height="32"/><rect x="288" y="1184" width="32" height="32"/><rect x="352" y="1184" width="32" height="32"/><rect x="416" y="1184" width="32" height="32"/><rect x="480" y="1184" width="32" height="32"/><rect x="544" y="1184" width="32" height="32"/><rect x="608" y="1184" width="32" height="32"/><rect x="672" y="1184" width="32" height="32"/><rect x="736" y="1184" width="32" height="32"/><rect x="800" y="1184" width="32" height="32"/><rect x="864" y="1184" width="32" height="32"/><rect x="928" y="1184" width="32" height="32"/><rect x="960" y="1184" width="32" height="32"/><rect x="992" y="1184" width="32" height="32"/><rect x="1024" y="1184" width="32" height="32"/><rect x="1056" y="1184" width="32" height="32"/><rect x="1120" y="1184" width="32" height="32"/><rect x="1152" y="1184" width="32" height="32"/><rect x="1184" y="1184" width="32" height="32"/><rect x="1248" y="1184" width="32" height="32"/><rect x="0" y="1216" width="32" height="32"/><rect x="64" y="1216" width="32" height="32"/><rect x="128" y="1216" width="32" height="32"/><rect x="160" y="1216" width="32" height="32"/><rect x="192" y="1216" width="32" height="32"/><rect x="256" y="1216" width="32" height="32"/><rect x="288" y="1216" width="32" height="32"/><rect x="320" y="1216" width="32" height="32"/><rect x="352" y="1216" width="32" height="32"/><rect x="384" y="1216" width="32" height="32"/><rect x="448" y="1216" width="32" height="32"/><rect x="512" y="1216" width="32" height="32"/><rect x="576" y="1216" width="16" height="16"/><rect x="640" y="1232" width="16" height="16"/><rect x="896" y="1216" width="32" height="32"/><rect x="960" y="1216" width="32" height="32"/><rect x="1024" y="1216" width="32" height="32"/><rect x="1088" y="1216" width="32" height="32"/><rect x="1152" y="1216" width="32" height="32"/><rect x="1216" y="1216" width="32" height="32"/><rect x="32" y="1248" width="32" height="32"/><rect x="96" y="1248" width="32" height="32"/><rect x="160" y="1248" width="32" height="32"/><rect x="224" y="1248" width="32" height="32"/><rect x="288" y="1248" width="32" height="32"/><rect x="352" y="1248" width="32" height="32"/><rect x="384" y="1248" width="32" height="32"/><rect x="416" y="1248" width="32" height="32"/><rect x="448" y="1248" width="32" height="32"/><rect x="480" y="1248" width="32" height="32"/><rect x="544" y="1248" width="32" height="32"/><rect x="608" y="1248" width="32" height="32"/><rect x="704" y="1248" width="32" height="32"/><rect x="736" y="1248" width="32" height="32"/><rect x="768" y="1248" width="32" height="32"/><rect x="800" y="1248" width="32" height="32"/><rect x="864" y="1248" width="32" height="32"/><rect x="928" y="1248" width="32" height="32"/><rect x="992" y="1248" width="32" height="32"/><rect x="1056" y="1248" width="32" height="32"/><rect x="1088" y="1248" width="32" height="32"/><rect x="1120" y="1248" width="32" height="32"/><rect x="1184" y="1248" width="32" height="32"/><rect x="1216" y="1248" width="32" height="32"/><rect x="1248" y="1248" width="32" height="32"/><rect x="0" y="1280" width="32" height="32"/><rect x="32" y="1280" width="32" height="32"/><rect x="64" y="1280" width="32" height="32"/><rect x="128" y="1280" width="32" height="32"/><rect x="160" y="1280" width="32" height="32"/><rect x="192" y="1280" width="32" height="32"/><rect x="256" y="1280" width="32" height="32"/><rect x="320" y="1280" width="32" height="32"/><rect x="352" y="1280" width="32" height="32"/><rect x="384" y="1280" width="32" height="32"/><rect x="448" y="1280" width="32" height="32"/><rect x="512" y="1280" width="32" height="32"/><rect x="576" y="1280" width="32" height="32"/><rect x="640" y="1280" width="32" height="32"/><rect x="704" y="1280" width="32" height="32"/><rect x="736" y="1280" width="32" height="32"/><rect x="768" y="1280" width="32" height="32"/><rect x="832" y="1280" width="32" height="32"/><rect x="896" y="1280" width="32" height="32"/><rect x="960" y="1280" width="32" height="32"/><rect x="1024" y="1280" width="32" height="32"/><rect x="1088" y="1280" width="32" height="32"/><rect x="1120" y="1280" width="32" height="32"/><rect x="1152" y="1280" width="32" height="32"/><rect x="1216" y="1280" width="32" height="32"/><rect x="0" y="1312" width="32" height="32"/><rect x="32" y="1312" width="32" height="32"/><rect x="96" y="1312" width="32" height="32"/><rect x="160" y="1312" width="32" height="32"/><rect x="224" y="1312" width="32" height="32"/><rect x="256" y="1312" width="32" height="32"/><rect x="288" y="1312" width="32" height="32"/><rect x="352" y="1312" width="32" height="32"/><rect x="416" y="1312" width="32" height="32"/><rect x="480" y="1312" width="32" height="32"/><rect x="544" y="1312" width="32" height="32"/><rect x="608" y="1312" width="32" height="32"/><rect x="672" y="1312" width="32" height="32"/><rect x="736" y="1312" width="32" height="32"/><rect x="800" y="1312" width="32" height="32"/><rect x="832" y="1312" width="32" height="32"/><rect x="864" y="1312" width="32" height="32"/><rect x="928" y="1312" width="32" height="32"/><rect x="960" y="1312" width="32" height="32"/><rect x="992" y="1312" width="32" height="32"/><rect x="1024" y="1312" width="32" height="32"/><rect x="1056" y="1312" width="32" height="32"/><rect x="1120" y="1312" width="32" height="32"/><rect x="1184" y="1312" width="32" height="32"/><rect x="1248" y="1312" width="32" height="32"/><rect x="0" y="1344" width="32" height="32"/><rect x="64" y="1344" width="32" height="32"/><rect x="128" y="1344" width="32" height="32"/><rect x="160" y="1344" width="32" height="32"/><rect x="192" y="1344" width="32" height="32"/><rect x="256" y="1344" width="32" height="32"/><rect x="320" y="1344" width="32" height="32"/><rect x="384" y="1344" width="32" height="32"/><rect x="448" y="1344" width="32" height="32"/><rect x="512" y="1344" width="32" height="32"/><rect x="576" y="1344" width="32" height="32"/><rect x="640" y="1344" width="32" height="32"/><rect x="704" y="1344" width="32" height="32"/><rect x="736" y="1344" width="32" height="32"/><rect x="768" y="1344" width="32" height="32"/><rect x="832" y="1344" width="32" height="32"/><rect x="896" y="1344" width="32" height="32"/><rect x="928" y="1344" width="32" height="32"/><rect x="960" y="1344" width="32" height="32"/><rect x="1024" y="1344" width="32" height="32"/><rect x="1056" y="1344" width="32" height="32"/><rect x="1088" y="1344" width="32" height="32"/><rect x="1152" y="1344" width="32" height="32"/><rect x="1216" y="1344" width="32" height="32"/><rect x="32" y="1376" width="32" height="32"/><rect x="96" y="1376" width="32" height="32"/><rect x="160" y="1376" width="32" height="32"/><rect x="224" y="1376" width="32" height="32"/><rect x="288" y="1376" width="32" height="32"/><rect x="352" y="1376" width="32" height="32"/><rect x="416" y="1376" width="32" height="32"/><rect x="480" y="1376" width="32" height="32"/><rect x="544" y="1376" width="32" height="32"/><rect x="608" y="1376" width="32" height="32"/><rect x="640" y="1376" width="32" height="32"/><rect x="672" y="1376" width="32" height="32"/><rect x="736" y="1376" width="32" height="32"/><rect x="800" y="1376" width="32" height="32"/><rect x="864" y="1376" width="32" height="32"/><rect x="896" y="1376" width="32" height="32"/><rect x="928" y="1376" width="32" height="32"/><rect x="960" y="1376" width="32" height="32"/><rect x="992" y="1376" width="32" height="32"/><rect x="1056" y="1376" width="32" height="32"/><rect x="1120" y="1376" width="32" height="32"/><rect x="1184" y="1376" width="32" height="32"/><rect x="1248" y="1376" width="32" height="32"/><rect x="0" y="1408" width="32" height="32"/><rect x="64" y="1408" width="32" height="32"/><rect x="128" y="1408" width="32" height="32"/><rect x="192" y="1408" width="32" height="32"/><rect x="224" y="1408" width="32" height="32"/><rect x="256" y="1408" width="32" height="32"/><rect x="320" y="1408" width="32" height="32"/><rect x="352" y="1408" width="32" height="32"/><rect x="384" y="1408" width="32" height="32"/><rect x="448" y="1408" width="32" height="32"/><rect x="480" y="1408" width="32" height="32"/><rect x="512" y="1408" width="32" height="32"/><rect x="576" y="1408" width="32" height="32"/><rect x="640" y="1408" width="32" height="32"/><rect x="704" y="1408" width="32" height="32"/><rect x="768" y="1408" width="32" height="32"/><rect x="832" y="1408" width="32" height="32"/><rect x="896" y="1408" width="32" height="32"/><rect x="960" y="1408" width="32" height="32"/><rect x="1024" y="1408" width="32" height="32"/><rect x="1088" y="1408" width="32" height="32"/><rect x="1120" y="1408" width="32" height="32"/><rect x="1152" y="1408" width="32" height="32"/><rect x="1216" y="1408" width="32" height="32"/></g></svg>